<?xml version="1.0" standalone="no"?><!DOCTYPE svg PUBLIC "-//W3C//DTD SVG 1.1//EN" "http://www.w3.org/Graphics/SVG/1.1/DTD/svg11.dtd"><svg t="1719846599442" class="icon" viewBox="0 0 1024 1024" version="1.1" xmlns="http://www.w3.org/2000/svg" p-id="7728" xmlns:xlink="http://www.w3.org/1999/xlink" width="64" height="64"><path d="M512.0256 512.64m-138.0608 0a138.0608 138.0608 0 1 0 276.1216 0 138.0608 138.0608 0 1 0-276.1216 0Z" fill="#01bf53" p-id="7729"></path><path d="M942.7712 471.5264h-51.1488a382.5664 382.5664 0 0 0-339.0976-338.944V81.2288c0-16.512-18.1504-30.0288-40.4992-30.0288s-40.4992 13.3632-40.4992 30.0288v51.3536a382.464 382.464 0 0 0-339.0208 338.944H81.2032c-16.4864 0-30.0032 18.1504-30.0032 40.4992s13.3632 40.4992 30.0032 40.4992h51.1744a382.7456 382.7456 0 0 0 339.1488 339.968v50.3296c0 16.5888 18.0992 29.9776 40.4736 29.9776 22.3488 0 40.4992-13.3376 40.4992-29.9776v-50.3296a382.6176 382.6176 0 0 0 339.1744-339.968h51.0976c16.512 0 30.0288-18.1504 30.0288-40.4992s-13.4144-40.4992-30.0288-40.4992z m-108.3648 74.9312c-16.0256 150.9376-137.1904 272.4096-288.128 288.7936l-34.3296 3.712-34.176-3.712c-150.8864-16.4608-272.0768-137.9072-288.128-288.7936l-3.6352-34.2528 3.7376-34.4576c16.384-150.528 137.4976-271.5904 287.9744-287.9232l34.304-3.712 34.304 3.712c152.9344 16.5632 271.36 134.9632 288.0512 287.9488l3.712 34.0224-3.6864 34.6624z" fill="#01bf53" p-id="7730"></path></svg>