<?xml version="1.0" standalone="no"?><!DOCTYPE svg PUBLIC "-//W3C//DTD SVG 1.1//EN" "http://www.w3.org/Graphics/SVG/1.1/DTD/svg11.dtd"><svg t="1719847289267" class="icon" viewBox="0 0 1024 1024" version="1.1" xmlns="http://www.w3.org/2000/svg" p-id="10448" xmlns:xlink="http://www.w3.org/1999/xlink" width="64" height="64"><path d="M786.090667 102.4H237.568C163.157333 102.4 102.4 163.157333 102.4 237.909333v548.181334C102.4 860.842667 163.157333 921.6 237.909333 921.6h548.181334c74.752 0 135.509333-60.757333 135.509333-135.509333V237.909333C921.6 163.157333 860.842667 102.4 786.090667 102.4zM460.8 793.941333c0-28.330667 22.528-50.858667 51.2-50.858666 28.330667 0 51.2 22.528 51.2 50.858666 0 28.672-22.869333 51.2-51.2 51.2-28.672 0-51.2-22.528-51.2-51.2zM170.666667 666.624V237.909333C170.666667 200.704 200.704 170.666667 237.568 170.666667h548.522667C822.954667 170.666667 853.333333 200.704 853.333333 237.909333v428.714667H170.666667z" p-id="10449" fill="#01bf53"></path><path d="M314.606933 343.722667a51.2 51.2 0 0 0-51.2 51.2v147.456a51.2 51.2 0 0 0 102.4 0v-147.456a51.2 51.2 0 0 0-51.2-51.2zM511.863467 392.874667a51.2 51.2 0 0 0-51.2 51.2v98.304a51.2 51.2 0 0 0 102.4 0v-98.304a51.2 51.2 0 0 0-51.2-51.2zM709.12 266.24a51.2 51.2 0 0 0-51.2 51.2v224.938667a51.2 51.2 0 0 0 102.4 0V317.44a51.2 51.2 0 0 0-51.2-51.2z" p-id="10450" fill="#01bf53"></path></svg>