<?xml version="1.0" standalone="no"?><!DOCTYPE svg PUBLIC "-//W3C//DTD SVG 1.1//EN" "http://www.w3.org/Graphics/SVG/1.1/DTD/svg11.dtd"><svg t="1719850352505" class="icon" viewBox="0 0 1024 1024" version="1.1" xmlns="http://www.w3.org/2000/svg" p-id="11528" xmlns:xlink="http://www.w3.org/1999/xlink" width="64" height="64"><path d="M334.695 321.084v-41.6h388.3v41.6zM334.652 439.827v-41.6h388.3v41.6z" fill="#01bf53" p-id="11529"></path><path d="M581.3 905.5H205.4c-18.5 0-33.6-14.1-33.6-31.5V162.8c0-17.4 15.1-31.5 33.6-31.5h646.7c18.5 0 33.6 14.1 33.6 31.5v370.6h-34.9V166.2H206.7v704.5h374.6v34.8z" fill="#01bf53" p-id="11530"></path><path d="M672.5 835.6c-89.3 0-161.9-72.6-161.9-161.9s72.7-161.9 161.9-161.9 161.9 72.7 161.9 161.9-72.6 161.9-161.9 161.9z m0-280.3c-65.2 0-118.3 53.1-118.3 118.3 0 65.2 53.1 118.3 118.3 118.3s118.3-53.1 118.3-118.3c0-65.2-53.1-118.3-118.3-118.3z" fill="#01bf53" p-id="11531"></path><path d="M902.4 934.6c-5.6 0-11.2-2.1-15.4-6.4L762.3 803.6c-8.5-8.5-8.5-22.3 0-30.8s22.3-8.5 30.8 0l124.6 124.6c8.5 8.5 8.5 22.3 0 30.8-4.2 4.3-9.8 6.4-15.3 6.4z" fill="#01bf53" p-id="11532"></path></svg>